<svg width="89" height="34" viewBox="0 0 89 34" fill="none" xmlns="http://www.w3.org/2000/svg">
<path d="M19.2693 8.69318C19.0779 7.06187 18.3016 5.79546 16.9404 4.89394C15.5792 3.99242 13.9096 3.54167 11.9316 3.54167C10.4854 3.54167 9.2199 3.77778 8.13521 4.25C7.06115 4.72222 6.22104 5.37153 5.61489 6.19792C5.01937 7.02431 4.72161 7.96338 4.72161 9.01515C4.72161 9.8952 4.92898 10.6518 5.34371 11.285C5.76909 11.9075 6.31143 12.428 6.97076 12.8466C7.63008 13.2544 8.32131 13.5925 9.04444 13.8608C9.76757 14.1184 10.4322 14.3277 11.0384 14.4886L14.3562 15.3902C15.207 15.6155 16.1534 15.9268 17.1956 16.3239C18.2484 16.721 19.2533 17.2629 20.2104 17.9498C21.1781 18.6259 21.9757 19.4953 22.6031 20.5578C23.2305 21.6203 23.5442 22.9242 23.5442 24.4697C23.5442 26.2513 23.0817 27.8611 22.1565 29.2992C21.2419 30.7374 19.902 31.8804 18.1367 32.7282C16.3821 33.5761 14.2499 34 11.7402 34C9.40068 34 7.37486 33.619 5.66274 32.857C3.96126 32.095 2.62134 31.0325 1.64299 29.6695C0.675275 28.3065 0.127611 26.7235 0 24.9205H4.08356C4.1899 26.1654 4.60463 27.1957 5.32776 28.0114C6.06153 28.8163 6.98671 29.4173 8.10331 29.8144C9.23054 30.2008 10.4428 30.3939 11.7402 30.3939C13.2503 30.3939 14.6062 30.1471 15.8078 29.6534C17.0095 29.149 17.9613 28.4514 18.6631 27.5606C19.365 26.6591 19.7159 25.6073 19.7159 24.4053C19.7159 23.3106 19.4128 22.4198 18.8067 21.733C18.2005 21.0461 17.403 20.488 16.414 20.0587C15.425 19.6294 14.3562 19.2538 13.2077 18.9318L9.188 17.7727C6.63578 17.0322 4.61527 15.9751 3.12647 14.6013C1.63768 13.2276 0.893278 11.4299 0.893278 9.20833C0.893278 7.36237 1.38777 5.75253 2.37676 4.37879C3.37638 2.99432 4.71629 1.92109 6.39651 1.15909C8.08735 0.386364 9.97494 0 12.0593 0C14.1648 0 16.0365 0.380997 17.6741 1.14299C19.3118 1.89425 20.6092 2.92456 21.5663 4.2339C22.534 5.54324 23.0444 7.02967 23.0976 8.69318H19.2693Z" fill="#EEEEEE"/>
<path d="M29.3982 33.4205H25.2508L37.2463 0.450758H41.3298L53.3253 33.4205H49.1779L39.4157 5.66667H39.1604L29.3982 33.4205Z" fill="#EEEEEE"/>
<path d="M56.9696 0.450758H61.6912L72.7934 27.8182H73.1762L84.2784 0.450758H89V33.4205H85.2993V8.37121H84.9802L74.7714 33.4205H71.1982L60.9894 8.37121H60.6703V33.4205H56.9696V0.450758Z" fill="#EEEEEE"/>
</svg>
